HIERARCHY
ROOT root
{
	OFFSET	0	13.1	24.9
	CHANNELS 6  Xposition Yposition Zposition Xrotation Yrotation Zrotation
	JOINT spine_1
	{
		OFFSET	0	9.99999	0
		CHANNELS 3  Xrotation Yrotation Zrotation
		JOINT spine_2
		{
			OFFSET	0	112	-10
			CHANNELS 3  Xrotation Yrotation Zrotation
			JOINT spine_3
			{
				OFFSET	0	206.5	19.3
				CHANNELS 3  Xrotation Yrotation Zrotation
				JOINT spine_4
				{
					OFFSET	0	110.4	14.6
					CHANNELS 3  Xrotation Yrotation Zrotation
					JOINT neck_1
					{
						OFFSET	0	71.8	-50.3
						CHANNELS 3  Xrotation Yrotation Zrotation
						JOINT neck_2
						{
							OFFSET	0	86.2	-25.8
							CHANNELS 3  Xrotation Yrotation Zrotation
							JOINT head_ee
							{
								OFFSET	0	179.8	-8.7
								CHANNELS 3  Xrotation Yrotation Zrotation
								End Site
								{
									OFFSET	1	0	0
								}
							}
						}
					}
					JOINT left_clavicle
					{
						OFFSET	-43.2	22.4	-70.8
						CHANNELS 3  Xrotation Yrotation Zrotation
						JOINT left_shoulder
						{
							OFFSET	-93.9	-5.79999	48.7
							CHANNELS 3  Xrotation Yrotation Zrotation
							JOINT left_elbow
							{
								OFFSET	-291.4	-30.8	15.2
								CHANNELS 3  Xrotation Yrotation Zrotation
								JOINT left_lowarm_twist
								{
									OFFSET	-110.7	-3.89999	13.6
									CHANNELS 3  Xrotation Yrotation Zrotation
									JOINT left_hand
									{
										OFFSET	-110.7	-3.89999	13.6
										CHANNELS 3  Xrotation Yrotation Zrotation
										JOINT left_ee
										{
											OFFSET	-80.8	-5.10001	12.1
											CHANNELS 3  Xrotation Yrotation Zrotation
											End Site
											{
												OFFSET	1	0	0
											}
										}
									}
								}
							}
						}
					}
					JOINT right_clavicle
					{
						OFFSET	43.2	22.4	-70.8
						CHANNELS 3  Xrotation Yrotation Zrotation
						JOINT right_shoulder
						{
							OFFSET	93.9	-5.79999	48.7
							CHANNELS 3  Xrotation Yrotation Zrotation
							JOINT right_elbow
							{
								OFFSET	291.4	-30.8	15.2
								CHANNELS 3  Xrotation Yrotation Zrotation
								JOINT right_lowarm_twist
								{
									OFFSET	110.7	-3.89999	13.6
									CHANNELS 3  Xrotation Yrotation Zrotation
									JOINT right_hand
									{
										OFFSET	110.7	-3.89999	13.6
										CHANNELS 3  Xrotation Yrotation Zrotation
										JOINT right_ee
										{
											OFFSET	80.8	-5.10001	12.1
											CHANNELS 3  Xrotation Yrotation Zrotation
											End Site
											{
												OFFSET	1	0	0
											}
										}
									}
								}
							}
						}
					}
				}
			}
		}
	}
	JOINT left_hip
	{
		OFFSET	-82.8	-127.5	0.300001
		CHANNELS 3  Xrotation Yrotation Zrotation
		JOINT left_knee
		{
			OFFSET	-28.2	-396.7	2.2
			CHANNELS 3  Xrotation Yrotation Zrotation
			JOINT left_ankle
			{
				OFFSET	-11.7	-411.3	35.4
				CHANNELS 3  Xrotation Yrotation Zrotation
				JOINT left_toes
				{
					OFFSET	0	-60	-88.6
					CHANNELS 3  Xrotation Yrotation Zrotation
					JOINT left_foot_ee
					{
						OFFSET	-22.5	-16.5	-42.2
						CHANNELS 3  Xrotation Yrotation Zrotation
						End Site
						{
							OFFSET	1	0	0
						}
					}
				}
			}
		}
	}
	JOINT right_hip
	{
		OFFSET	82.8	-127.5	0.300001
		CHANNELS 3  Xrotation Yrotation Zrotation
		JOINT right_knee
		{
			OFFSET	28.2	-396.7	2.2
			CHANNELS 3  Xrotation Yrotation Zrotation
			JOINT right_ankle
			{
				OFFSET	11.7	-411.3	35.4
				CHANNELS 3  Xrotation Yrotation Zrotation
				JOINT right_toes
				{
					OFFSET	0	-60	-88.6
					CHANNELS 3  Xrotation Yrotation Zrotation
					JOINT right_foot_ee
					{
						OFFSET	22.5	-16.5	-42.2
						CHANNELS 3  Xrotation Yrotation Zrotation
						End Site
						{
							OFFSET	1	0	0
						}
					}
				}
			}
		}
	}
}
MOTION
Frames: 8
Frame Time: 0.02
1168.4438305 744.211 -1740.84603834 13.7181578491 39.1056798558 -9.41900393127 -5.83131 0.32286 0.153548 -5.83135 0.312435 0.173781 -5.8304 0.243614 0.261664 -5.83038 0.281881 0.219906 1.19662 9.13332 -0.510435 1.43737 16.5727 0.248796 -0.0 0.0 -0.0 8.93126 -10.5583 17.4986 -11.8416 -8.91361 56.218 0.597537 -16.489 0.0865808 -13.705 -0.679168 1.61121 -0.711888 -0.908964 -5.15489 -0.0 0.0 -0.0 8.51206 -1.82622 -16.5634 2.79638 30.5738 -51.6842 1.3339 33.4541 -0.400894 23.2316 -0.225524 2.93879 1.77905 -4.19191 -13.6141 0.0 0.0 0.0 17.9163 -4.70934 2.63353 -63.967 -2.64323 8.94749 28.145 25.243 -3.89559 -2.99146 0.0 0.0 -0.0 0.0 -0.0 -0.671183 4.5518 -4.27844 -14.5179 -0.32065 -2.19893 22.2397 7.73543 3.10505 -40.1525 0.0 0.0 0.0 0.0 0.0 
1159.42210736 746.407 -1753.89468807 12.4975895194 39.0075186517 -8.38199252292 -5.73968 0.349744 0.287827 -5.7397 0.33072 0.309499 -5.73778 0.219795 0.396049 -5.73789 0.279585 0.356367 1.84071 9.87725 0.40128 2.10095 17.0492 1.23536 -0.0 0.0 -0.0 8.53541 -9.06397 16.682 -13.6483 -8.01768 57.1058 0.545303 -15.1165 0.0723553 -13.0749 -0.63959 1.54094 -0.689769 -0.67763 -4.90567 -0.0 0.0 -0.0 8.53997 -3.78735 -16.5406 4.7428 30.6059 -51.4307 1.59544 38.3177 -0.554338 23.1388 -0.227006 2.92703 1.64096 -2.60671 -12.0631 0.0 0.0 0.0 19.6502 -3.5115 2.10707 -64.3063 -2.68249 8.98216 27.227 24.9861 -3.77995 -3.80924 0.0 0.0 -0.0 0.0 -0.0 -1.96595 1.01371 -4.62404 -13.0974 -0.314007 -1.98109 21.9424 3.52143 3.0186 -40.1174 0.0 0.0 0.0 0.0 0.0 
1162.22006845 746.407 -1756.00746825 12.398523338 38.4479042203 -8.22364567518 -5.73968 0.349744 0.287827 -5.7397 0.33072 0.309499 -5.73778 0.219795 0.396049 -5.73789 0.279585 0.356367 1.84071 9.87725 0.40128 2.10095 17.0492 1.23536 -0.0 0.0 -0.0 8.53541 -9.06397 16.682 -13.6483 -8.01768 57.1058 0.545303 -15.1165 0.0723553 -13.0749 -0.63959 1.54094 -0.689769 -0.67763 -4.90567 -0.0 0.0 -0.0 8.53997 -3.78735 -16.5406 4.7428 30.6059 -51.4307 1.59544 38.3177 -0.554338 23.1388 -0.227006 2.92703 1.64096 -2.60671 -12.0631 0.0 0.0 0.0 19.6502 -3.5115 2.10707 -64.3063 -2.68249 8.98216 27.227 24.9861 -3.77995 -3.80924 0.0 0.0 -0.0 0.0 -0.0 -1.96595 1.01371 -4.62404 -13.0974 -0.314007 -1.98109 21.9424 3.52143 3.0186 -40.1174 0.0 0.0 0.0 0.0 0.0 
1139.08501044 742.539 -1761.25095171 13.406937895 42.0097761261 -8.3883192408 -5.68526 0.213426 0.221718 -5.68525 0.198885 0.23485 -5.68436 0.117489 0.28444 -5.68444 0.160936 0.262315 1.91985 9.40952 -0.475245 2.19189 16.9481 0.222588 -0.0 0.0 -0.0 8.41343 -8.59767 16.4312 -15.0622 -7.06384 57.6274 0.41697 -11.6708 0.0426148 -12.5096 -0.604747 1.47755 -0.279603 -0.425118 -2.04878 -0.0 0.0 -0.0 8.96653 -3.98032 -17.3665 6.90707 30.661 -51.4227 1.70572 40.1933 -0.624133 23.2229 -0.225663 2.93769 1.76429 -1.55035 -12.4875 0.0 0.0 0.0 23.2208 -1.64823 2.10933 -57.0767 -1.89273 8.19556 22.8454 27.5357 -3.28794 -5.36651 0.0 0.0 -0.0 0.0 -0.0 -4.08244 -0.300098 -6.36477 -12.6583 -0.31086 -1.91378 23.9741 2.4618 3.25274 -40.0584 0.0 0.0 0.0 0.0 0.0 
1118.59457603 737.288 -1770.78622567 12.8275785376 43.5571676195 -8.2700663987 -5.78847 0.187974 0.333804 -5.78843 0.166352 0.345089 -5.78725 0.0521044 0.379532 -5.78744 0.11139 0.36654 1.24704 9.53799 -0.229125 1.49915 17.0504 0.584185 -0.0 0.0 -0.0 8.12086 -7.61242 15.8293 -16.3205 -6.23991 57.8924 0.402431 -11.2745 0.0397229 -12.362 -0.595756 1.46095 0.301381 -1.96637 1.19105 -0.0 0.0 -0.0 9.37032 -5.80223 -18.0397 8.94993 30.4907 -51.2334 1.95947 44.1424 -0.794577 23.6238 -0.219049 2.98847 1.96384 1.24172 -12.7389 0.0 0.0 0.0 24.3468 -1.97389 1.01898 -52.1046 -1.41036 7.60042 16.8597 25.7052 -2.45832 -8.01155 0.0 0.0 -0.0 0.0 -0.0 -5.42255 -2.05421 -6.47204 -11.0099 -0.29445 -1.66141 26.4193 -0.29369 3.51403 -40.0119 0.0 0.0 0.0 0.0 0.0 
1096.71839608 727.206 -1778.09493241 12.8465943485 42.5901484483 -8.7672311034 -5.7835 0.18718 0.552612 -5.78334 0.151637 0.563402 -5.78144 -0.02901 0.58273 -5.7819 0.0633838 0.579998 0.80016 9.84074 0.69455 1.02395 16.8802 1.67228 -0.0 0.0 -0.0 7.71686 -7.27149 14.9848 -17.2098 -5.19128 59.2064 0.282977 -7.97981 0.0197376 -11.7625 -0.559666 1.39325 0.60627 -0.814892 3.71572 -0.0 0.0 -0.0 10.1794 -5.84369 -19.6161 11.4738 30.2508 -50.7824 2.20479 47.5167 -0.970612 23.0409 -0.228549 2.91462 1.87978 0.694177 -12.383 0.0 0.0 0.0 25.9766 -1.69453 0.11505 -48.2662 -1.07455 7.11408 11.8624 28.3601 -1.78915 -9.86645 0.0 0.0 -0.0 0.0 -0.0 -6.92213 -4.38833 -5.61817 -11.4384 -0.299414 -1.72697 29.0055 -1.31353 3.79478 -40.0284 0.0 0.0 0.0 0.0 0.0 
1072.70439427 724.923 -1783.15955987 13.8195709663 43.4467754674 -10.0350627056 -5.72503 0.085264 0.556164 -5.72486 0.0497016 0.560463 -5.72403 -0.124555 0.548703 -5.72445 -0.0363355 0.561487 -0.992652 9.53056 1.32205 -0.83798 16.0508 2.51779 -0.0 0.0 -0.0 7.27158 -6.70175 14.066 -18.3794 -4.11653 60.7102 0.2892 -8.15297 0.0206108 -11.3098 -0.532886 1.34189 1.44027 -0.159406 9.60226 -0.0 0.0 -0.0 9.84187 -6.58893 -18.8919 13.0688 29.3519 -51.18 2.4277 50.248 -1.13859 22.6341 -0.234732 2.86302 1.81379 3.54517 -10.7655 0.0 0.0 0.0 28.7211 -3.90439 1.51324 -44.9585 -0.81197 6.67802 4.5973 26.1423 -0.698666 -12.753 0.0 0.0 -0.0 0.0 -0.0 -9.40313 -6.49629 -4.74027 -11.0232 -0.294612 -1.66344 32.3835 -4.44732 4.13873 -40.1201 0.0 0.0 0.0 0.0 0.0 
1050.86756288 721.484 -1788.8059968 14.6513556104 43.7477753125 -10.9359139417 -5.79067 0.0392724 0.57522 -5.79048 0.00259065 0.576553 -5.79012 -0.174966 0.549371 -5.79053 -0.086009 0.570108 -2.56135 9.197 1.67521 -2.45486 15.3681 3.01977 -0.0 0.0 -0.0 6.94866 -5.83646 13.4166 -19.4667 -3.5377 62.4286 0.330632 -9.30182 0.0268978 -11.1177 -0.521648 1.32004 2.13879 -0.155813 14.3814 -0.0 0.0 -0.0 10.0377 -7.2674 -19.2096 14.1616 28.7624 -51.8406 2.62583 52.4386 -1.29334 22.4033 -0.238077 2.83374 1.80069 5.73752 -9.75884 0.0 0.0 0.0 29.4883 -5.86836 2.3516 -42.4162 -0.627595 6.33317 -1.47576 24.0912 0.225011 -15.2998 0.0 0.0 -0.0 0.0 -0.0 -10.9772 -8.37537 -4.18531 -10.6688 -0.290148 -1.60925 35.0152 -6.63981 4.40066 -40.0603 0.0 0.0 0.0 0.0 0.0 
